<svg xmlns="http://www.w3.org/2000/svg" width="155" height="39" viewBox="0 0 155 39">
    <g fill="none" fill-rule="evenodd">
        <g fill-rule="nonzero">
            <g>
                <g fill="#739DD3">
                    <path d="M38.51 19.5c0 10.74-8.65 19.5-19.255 19.5C8.65 39 0 30.24 0 19.5S8.65 0 19.255 0C29.86 0 38.509 8.76 38.509 19.5m-34.243 0c0 8.34 6.694 15.12 14.93 15.12 8.234 0 14.93-6.78 14.93-15.12S27.43 4.38 19.195 4.38c-8.236 0-14.93 6.78-14.93 15.12" transform="translate(-67 -40) translate(67 40) translate(.178)"/>
                    <path d="M37.028 23.82c0 6.96-5.569 12.6-12.441 12.6-6.873 0-12.442-5.64-12.442-12.6s5.57-12.6 12.442-12.6c6.872.06 12.441 5.64 12.441 12.6m-20.44 0c0 4.5 3.615 8.1 7.999 8.1 4.443 0 7.998-3.66 7.998-8.1 0-4.5-3.614-8.1-7.998-8.1-4.444 0-7.998 3.6-7.998 8.1" transform="translate(-67 -40) translate(67 40) translate(.178)"/>
                </g>
                <g fill="#E2E2E2">
                    <path d="M28.556 25.74h4.325V15.66c.06-1.32.06-5.04 5.57-5.1 1.421 0 2.25.24 2.665.36V6.18c-.474-.06-.889-.06-1.54-.06-3.733 0-5.629 1.92-6.576 3.48h-.119V6.78h-4.325v18.96zM48.996 6.72H53.321000000000005V25.74H48.996zM60.134 6.72L68.961 25.74 73.286 25.74 82.232 6.72 77.493 6.72 71.213 20.82 64.873 6.72zM96.866 22.74c-3.91 0-6.103-2.46-6.103-6.48 0-4.44 2.785-6.3 6.103-6.3 3.258 0 6.102 1.86 6.102 6.3 0 4.08-2.251 6.48-6.102 6.48m.059 3.66c5.154 0 10.546-2.58 10.546-10.14 0-5.1-3.022-10.14-10.546-10.14-7.465 0-10.546 5.04-10.546 10.14 0 7.56 5.392 10.14 10.546 10.14M4.325 12.48c1.303-1.08 3.14-2.64 6.28-2.64 3.318 0 6.635 2.1 6.635 6.42 0 4.2-3.14 6.36-6.457 6.36-2.963 0-4.74-1.44-6.399-2.76l-.06-7.38zM0 25.74h4.266v-2.46c.888.96 3.14 3.06 7.465 3.06 5.332 0 9.893-3.84 9.893-10.26 0-5.76-3.91-10.02-10.071-10.02-3.614 0-5.332 1.26-7.228 2.64V0H0v25.74z" transform="translate(-67 -40) translate(67 40) translate(46.389 6.84)"/>
                </g>
            </g>
        </g>
    </g>
</svg>
