<svg xmlns="http://www.w3.org/2000/svg" width="140.138" height="134.138" viewBox="0 0 140.138 134.138">
  <g id="no_microphone_white" transform="translate(-249.431 -292.431)">
    <path id="microphone_blue" d="M43.151,86.3A23.536,23.536,0,0,0,66.687,62.764V23.537a23.537,23.537,0,1,0-47.073,0V62.764A23.536,23.536,0,0,0,43.151,86.3ZM82.378,47.073H78.456A3.922,3.922,0,0,0,74.533,51V62.764a31.418,31.418,0,0,1-34.518,31.23C23.711,92.4,11.768,77.747,11.768,61.367V51a3.922,3.922,0,0,0-3.923-3.923H3.923A3.922,3.922,0,0,0,0,51v9.846c0,21.977,15.684,41.569,37.266,44.546v8.373H23.537a3.922,3.922,0,0,0-3.923,3.923v3.923a3.922,3.922,0,0,0,3.923,3.923H62.764a3.922,3.922,0,0,0,3.923-3.923v-3.923a3.922,3.922,0,0,0-3.923-3.923H49.035v-8.28A43.192,43.192,0,0,0,86.3,62.764V51A3.922,3.922,0,0,0,82.378,47.073Z" transform="translate(276 299)" fill="#fff"/>
    <line id="Line_1" data-name="Line 1" y1="120" x2="126" transform="translate(256.5 299.5)" fill="none" stroke="#fff" stroke-linecap="round" stroke-width="10"/>
  </g>
</svg>
