<svg xmlns="http://www.w3.org/2000/svg" width="153.46" height="37.697" viewBox="0 0 153.46 37.697">
  <path id="Path_3" data-name="Path 3" d="M40.776,36.755h6.176V22.361c.086-1.885.086-7.2,7.953-7.282a12.637,12.637,0,0,1,3.805.514V8.825a16.809,16.809,0,0,0-2.2-.086c-5.33,0-8.038,2.742-9.39,4.969h-.17V9.681H40.776ZM69.962,9.6h6.176V36.755H69.962Zm15.9,0,12.6,27.159h6.176L117.42,9.6h-6.767l-8.967,20.134L92.633,9.6Zm52.45,22.875c-5.583,0-8.715-3.513-8.715-9.253,0-6.34,3.977-9,8.715-9,4.652,0,8.713,2.656,8.713,9,0,5.826-3.214,9.253-8.713,9.253M138.4,37.7c7.359,0,15.059-3.684,15.059-14.479,0-7.282-4.315-14.479-15.059-14.479-10.659,0-15.059,7.2-15.059,14.479,0,10.8,7.7,14.479,15.059,14.479M6.176,17.82c1.861-1.542,4.484-3.77,8.967-3.77,4.738,0,9.474,3,9.474,9.167,0,6-4.484,9.082-9.22,9.082-4.231,0-6.768-2.056-9.137-3.941L6.174,17.82ZM0,36.755H6.091V33.242a13.835,13.835,0,0,0,10.659,4.369c7.614,0,14.126-5.483,14.126-14.65,0-8.225-5.583-14.308-14.381-14.308-5.16,0-7.614,1.8-10.321,3.77V0H0Z" fill="#e2e2e2"/>
</svg>
